<?xml version="1.0" encoding="UTF-8"?>
<svg id="Layer_1" data-name="Layer 1" xmlns="http://www.w3.org/2000/svg" viewBox="0 0 160 160">
  <path d="M114.67,13.67c.4,1.95-.27,4.43-.7,6.42-2.92,13.35-9.79,23.7-22.51,29.3-1.38.61-9.98,3.69-10.76,2.94.09-1.01.78-1.98,1.31-2.83,3.29-5.22,8.07-9.66,11.44-14.69.13-.2.39-.6.1-.75-5.71,4.51-11.07,9.97-15.26,15.95-1.04,1.48-2.94,4.23-3.48,5.87-.52,1.56-.46,3.26-.89,4.84l.42.21c5.29-6.73,16.22-5.84,20.7,1.37,8.95-8.92,23.68-1.41,21.97,11.05,12.91,1.21,16.09,19.25,4.67,25.17,6.5,7.69,2.11,20.23-8.28,20.71,3.85,9.31-2.83,19.42-13.06,18.69-1.41-.1-2.56-.67-3.91-.83-4.24,12.57-22.96,11.23-25.29-1.93-9.25,5.03-19.44-1.67-18.47-12.21.13-1.41.76-2.59,1.06-3.93-5.66.89-11.07-3.12-12.21-8.7-.74-3.61,0-6.54,1.6-9.78-9.48-5.01-8.8-19.77,1.7-23.16-3.12-9.89,5.44-18.14,15.34-16.09.85.18,3.98,1.69,4.26,1.62.38-.1,1.42-1.56,1.38-1.96-.05-.5-3.02-4.44-3.57-5.13-6.26-7.82-15.17-14.97-23.15-21.02-4.89-3.7-9.95-7.21-15.11-10.52-1.17-1.11,2.02-3.66,2.96-4.22.94-.55,1.05-.51,1.97.08,5.81,3.77,12.68,9.48,18.16,13.9,5.9,4.76,12.19,10.05,17.21,15.71,1.91,2.16,3.52,4.56,5.36,6.74.16.19.23.55.58.48.33-.2.27-.44.32-.74.72-4.15,1.23-8.11,2.49-12.17,5.6-18.07,21.3-29.43,40.1-30.2l.51-.22h1.06ZM58.61,87.59v-4.78c0-4.72,6-9.62,10.7-8.79l3.32.71c-2.17-3.25-6.68-3.99-10.19-2.75-6.28,2.22-8.8,10.13-4.31,15.34.13.15-.01.4.49.27ZM84.3,87.8v-3.93c0-.18.7-2.23.84-2.56,1.79-4.19,5.69-6.46,10.19-6.15.28.02.72.36.64-.21-6.29-4-14.46.68-13.78,8.26.12,1.32.79,3.28,1.61,4.32.14.18,0,.39.49.27ZM69.44,106.17c-.08-1.15,0-2.44,0-3.61,0-.57.85-2.49,1.16-3.08,1.86-3.46,4.55-4.62,8.28-5.1.31-.04.62.19.54-.31-8.06-4.22-16.15,5.75-10.08,12.63.7.03.11-.41.1-.53ZM60.52,97.57c.53-.53-2.23-1.54-2.53-1.61-6.68-1.34-12.15,5-9.95,11.44.16.47,1.21,2.54,1.55,2.7.47.08.32-.19.29-.51-.08-1.08-.3-2.07-.2-3.22.46-5.36,5.43-9.83,10.83-8.81Z"/>
  <path d="M58.7,87.55c-.5.13-.35-.12-.48-.27-4.47-5.18-1.96-13.06,4.29-15.26,3.49-1.23,7.98-.49,10.14,2.74l-3.3-.71c-4.67-.83-10.64,4.05-10.64,8.74v4.76Z" fill="#fff"/>
  <path d="M84.26,87.76c-.49.12-.35-.09-.48-.27-.81-1.04-1.48-2.99-1.6-4.3-.68-7.54,7.45-12.19,13.71-8.22.08.57-.36.23-.64.21-4.48-.31-8.36,1.95-10.14,6.12-.14.33-.84,2.37-.84,2.54v3.91Z" fill="#fff"/>
  <path d="M60.6,97.48c-5.37-1.01-10.33,3.43-10.78,8.76-.1,1.14.12,2.12.2,3.2.02.32.17.59-.29.5-.33-.16-1.38-2.22-1.54-2.69-2.19-6.4,3.25-12.72,9.9-11.38.3.06,3.04,1.07,2.52,1.6Z" fill="#fff"/>
  <path d="M69.47,106.04c0,.12.59.55-.1.53-6.04-6.85,2.01-16.77,10.03-12.57.08.5-.23.27-.53.31-3.71.48-6.39,1.63-8.24,5.08-.32.59-1.16,2.5-1.16,3.07,0,1.17-.08,2.45,0,3.59Z" fill="#fff"/>
</svg>