<?xml version="1.0" encoding="UTF-8"?>
<svg id="Layer_1" data-name="Layer 1" xmlns="http://www.w3.org/2000/svg" viewBox="0 0 160 160">
  <path d="M113.76,11.78c.41,2.01-.27,4.56-.72,6.6-3,13.74-10.07,24.38-23.16,30.14-1.42.63-10.27,3.79-11.07,3.02.1-1.03.8-2.04,1.35-2.91,3.39-5.37,8.3-9.94,11.76-15.1.13-.2.4-.61.1-.77-5.87,4.64-11.39,10.26-15.7,16.41-1.06,1.52-3.02,4.35-3.58,6.03-.53,1.6-.47,3.36-.92,4.98l.43.22c5.44-6.92,16.68-6,21.29,1.41,9.2-9.17,24.36-1.45,22.6,11.37,13.28,1.24,16.55,19.8,4.8,25.89,6.68,7.91,2.17,20.81-8.51,21.3,3.96,9.57-2.91,19.98-13.43,19.22-1.45-.1-2.63-.69-4.02-.85-4.36,12.93-23.62,11.55-26.01-1.98-9.51,5.17-20-1.71-18.99-12.56.13-1.45.78-2.67,1.09-4.04-5.83.91-11.38-3.21-12.56-8.95-.77-3.72,0-6.73,1.65-10.05-9.75-5.15-9.06-20.33,1.75-23.82-3.21-10.18,5.6-18.66,15.78-16.55.87.18,4.09,1.73,4.38,1.66.39-.1,1.46-1.6,1.42-2.01-.05-.51-3.11-4.57-3.68-5.27-6.44-8.04-15.6-15.4-23.82-21.62-5.03-3.81-10.23-7.42-15.54-10.82-1.2-1.15,2.08-3.76,3.04-4.34s1.08-.52,2.02.08c5.98,3.88,13.04,9.75,18.68,14.3,6.07,4.89,12.54,10.34,17.7,16.16,1.97,2.22,3.62,4.69,5.52,6.94.16.19.24.57.59.49.34-.2.28-.45.33-.76.74-4.27,1.27-8.34,2.56-12.52,5.76-18.59,21.91-30.27,41.25-31.06l.53-.23h1.09ZM56.11,87.81v-4.92c0-4.85,6.17-9.9,11-9.04l3.41.74c-2.23-3.34-6.88-4.1-10.48-2.83-6.46,2.28-9.05,10.42-4.44,15.78.13.16-.01.41.5.28ZM82.54,88.03v-4.04c0-.18.72-2.29.87-2.63,1.84-4.31,5.85-6.64,10.49-6.33.29.02.74.37.66-.22-6.47-4.11-14.88.7-14.17,8.49.12,1.35.82,3.37,1.66,4.45.14.18,0,.4.5.28ZM67.25,106.93c-.08-1.19,0-2.51,0-3.71,0-.58.87-2.56,1.2-3.17,1.91-3.56,4.68-4.75,8.52-5.25.31-.04.64.2.55-.32-8.3-4.34-16.61,5.91-10.37,13,.72.03.11-.42.11-.54ZM58.07,98.08c.54-.54-2.29-1.59-2.61-1.65-6.87-1.38-12.5,5.15-10.23,11.76.16.48,1.25,2.61,1.59,2.78.48.09.33-.19.3-.52-.08-1.11-.3-2.13-.2-3.31.47-5.51,5.59-10.11,11.14-9.06Z"/>
  <path d="M25.86,81.23c-.09.02-.07-.02-.09-.05-.85-.99-.37-2.49.82-2.91.66-.23,1.52-.09,1.93.52l-.63-.14c-.89-.16-2.03.77-2.03,1.67v.91Z" fill="none"/>
  <path d="M30.73,81.27c-.09.02-.07-.02-.09-.05-.15-.2-.28-.57-.31-.82-.13-1.44,1.42-2.32,2.61-1.56.01.11-.07.04-.12.04-.85-.06-1.59.37-1.93,1.17-.03.06-.16.45-.16.48v.74Z" fill="none"/>
  <path d="M26.23,83.12c-1.02-.19-1.97.65-2.05,1.67-.02.22.02.4.04.61,0,.06.03.11-.06.1-.06-.03-.26-.42-.29-.51-.42-1.22.62-2.42,1.88-2.17.06.01.58.2.48.3Z" fill="none"/>
  <path d="M27.92,84.75s.11.11-.02.1c-1.15-1.31.38-3.19,1.91-2.39.02.1-.04.05-.1.06-.71.09-1.22.31-1.57.97-.06.11-.22.48-.22.58,0,.22-.01.47,0,.68Z" fill="none"/>
</svg>