<?xml version="1.0" encoding="UTF-8"?>
<svg id="Layer_1" data-name="Layer 1" xmlns="http://www.w3.org/2000/svg" viewBox="0 0 135 35">
  <text transform="translate(32.45 26.07)" font-family="NataSans-Regular, &apos;Nata Sans&apos;" font-size="19" font-variation-settings="&apos;wght&apos; 400"><tspan x="0" y="0">Bramb</tspan><tspan x="61.14" y="0" letter-spacing="-.01em">l</tspan><tspan x="67.16" y="0">eAI</tspan></text>
  <path d="M23.99,4.72c.08.37-.05.84-.13,1.22-.55,2.53-1.86,4.49-4.27,5.55-.26.12-1.89.7-2.04.56.02-.19.15-.38.25-.54.62-.99,1.53-1.83,2.17-2.78.02-.04.07-.11.02-.14-1.08.86-2.1,1.89-2.89,3.02-.2.28-.56.8-.66,1.11s-.09.62-.17.92l.08.04c1-1.28,3.07-1.11,3.92.26,1.7-1.69,4.49-.27,4.16,2.09,2.45.23,3.05,3.65.89,4.77,1.23,1.46.4,3.83-1.57,3.92.73,1.76-.54,3.68-2.47,3.54-.27-.02-.49-.13-.74-.16-.8,2.38-4.35,2.13-4.79-.37-1.75.95-3.69-.32-3.5-2.31.02-.27.14-.49.2-.75-1.07.17-2.1-.59-2.32-1.65-.14-.68,0-1.24.3-1.85-1.8-.95-1.67-3.75.32-4.39-.59-1.88,1.03-3.44,2.91-3.05.16.03.75.32.81.31.07-.02.27-.3.26-.37,0-.09-.57-.84-.68-.97-1.19-1.48-2.87-2.84-4.39-3.98-.93-.7-1.89-1.37-2.86-1.99-.22-.21.38-.69.56-.8s.2-.1.37.02c1.1.72,2.4,1.8,3.44,2.64,1.12.9,2.31,1.9,3.26,2.98.36.41.67.86,1.02,1.28.03.04.04.1.11.09.06-.04.05-.08.06-.14.14-.79.23-1.54.47-2.31,1.06-3.43,4.04-5.58,7.6-5.72l.1-.04h.2ZM13.36,18.73v-.91c0-.89,1.14-1.82,2.03-1.67l.63.14c-.41-.62-1.27-.76-1.93-.52-1.19.42-1.67,1.92-.82,2.91.02.03,0,.08.09.05ZM18.23,18.77v-.74s.13-.42.16-.48c.34-.79,1.08-1.22,1.93-1.17.05,0,.14.07.12-.04-1.19-.76-2.74.13-2.61,1.56.02.25.15.62.31.82.03.03,0,.07.09.05ZM15.42,22.25c-.01-.22,0-.46,0-.68,0-.11.16-.47.22-.58.35-.66.86-.87,1.57-.97.06,0,.12.04.1-.06-1.53-.8-3.06,1.09-1.91,2.39.13,0,.02-.08.02-.1ZM13.73,20.62c.1-.1-.42-.29-.48-.3-1.27-.25-2.3.95-1.88,2.17.03.09.23.48.29.51.09.02.06-.04.06-.1-.02-.21-.06-.39-.04-.61.09-1.02,1.03-1.86,2.05-1.67Z"/>
  <path d="M13.36,18.73c-.09.02-.07-.02-.09-.05-.85-.99-.37-2.49.82-2.91.66-.23,1.52-.09,1.93.52l-.63-.14c-.89-.16-2.03.77-2.03,1.67v.91Z" fill="none"/>
  <path d="M18.23,18.77c-.09.02-.07-.02-.09-.05-.15-.2-.28-.57-.31-.82-.13-1.44,1.42-2.32,2.61-1.56.01.11-.07.04-.12.04-.85-.06-1.59.37-1.93,1.17-.03.06-.16.45-.16.48v.74Z" fill="none"/>
  <path d="M13.73,20.62c-1.02-.19-1.97.65-2.05,1.67-.02.22.02.4.04.61,0,.06.03.11-.06.1-.06-.03-.26-.42-.29-.51-.42-1.22.62-2.42,1.88-2.17.06.01.58.2.48.3Z" fill="none"/>
  <path d="M15.42,22.25s.11.11-.02.1c-1.15-1.31.38-3.19,1.91-2.39.02.1-.04.05-.1.06-.71.09-1.22.31-1.57.97-.06.11-.22.48-.22.58,0,.22-.01.47,0,.68Z" fill="none"/>
</svg>